<?xml version="1.0" standalone="no"?>
<!DOCTYPE svg PUBLIC "-//W3C//DTD SVG 20010904//EN"
 "http://www.w3.org/TR/2001/REC-SVG-20010904/DTD/svg10.dtd">
<svg version="1.0" xmlns="http://www.w3.org/2000/svg"
 width="1120.000000pt" height="1120.000000pt" viewBox="0 0 1120.000000 1120.000000"
 preserveAspectRatio="xMidYMid meet">

<g transform="translate(0.000000,1120.000000) scale(0.100000,-0.100000)"
fill="#000000" stroke="none">
<path d="M6860 8913 c-487 -46 -979 -301 -1411 -732 -289 -288 -489 -584 -631
-931 -46 -113 -123 -330 -144 -405 -30 -110 -54 -230 -49 -242 2 -7 20 -13 39
-13 19 0 46 -4 61 -10 23 -9 35 -3 116 61 127 99 245 173 374 235 272 131 449
185 681 210 130 14 175 15 268 5 314 -31 544 -154 714 -380 224 -298 311 -741
241 -1234 -25 -180 -79 -366 -162 -561 l-50 -119 28 -23 c15 -12 57 -33 94
-47 285 -110 598 -110 890 -1 82 30 309 144 366 184 24 16 71 60 104 97 123
137 169 279 122 376 -38 78 -121 137 -194 137 -10 0 -40 11 -67 25 -42 21 -50
30 -50 53 0 55 -51 279 -81 354 -10 27 -15 48 -10 48 5 0 32 -16 61 -35 119
-80 279 -97 390 -41 108 54 180 151 180 243 0 26 5 68 11 92 16 69 -12 208
-68 341 -27 65 -85 174 -116 220 -159 236 -523 504 -822 604 -44 15 -89 31
-100 36 -33 15 -236 66 -320 80 -43 8 -39 8 26 4 123 -7 366 -65 534 -126 84
-30 99 -33 215 -33 117 0 129 2 183 28 78 39 110 87 115 172 7 110 -40 215
-143 321 -114 116 -303 228 -472 280 -382 117 -846 107 -1273 -27 -126 -40
-123 -39 -111 -25 20 24 271 104 481 154 25 6 115 23 200 37 184 32 275 61
350 114 92 64 142 160 126 245 -13 68 -108 142 -251 195 -81 30 -308 47 -445
34z"/>
<path d="M6367 6180 c-15 -17 -36 -63 -47 -103 -155 -535 -580 -962 -1135
-1141 -101 -32 -141 -43 -290 -76 -27 -6 -140 -14 -251 -17 -267 -7 -410 15
-677 107 -139 47 -219 86 -366 179 -243 153 -433 322 -616 546 -27 34 -93 113
-145 176 -53 63 -122 151 -154 196 -78 109 -145 153 -235 153 -92 0 -137 -61
-128 -175 14 -183 193 -542 400 -804 37 -46 65 -86 63 -89 -3 -2 -33 14 -68
37 -76 50 -126 65 -194 58 -94 -10 -168 -64 -194 -143 -16 -47 -8 -173 15
-239 157 -456 644 -871 1190 -1014 100 -26 299 -51 402 -51 168 1 399 63 539
145 134 79 194 188 149 275 -19 37 -62 70 -91 70 -12 0 -26 5 -29 10 -4 7 59
10 182 10 324 0 597 51 887 166 256 102 450 227 626 403 260 261 395 570 395
906 0 139 -17 232 -60 330 -22 50 -74 105 -100 105 -7 0 -20 2 -28 6 -8 3 -25
-8 -40 -26z m-3247 -1350 c53 -40 236 -154 320 -200 191 -103 432 -201 613
-249 42 -12 110 -30 151 -41 41 -11 87 -20 102 -20 20 0 25 -3 17 -11 -14 -14
-82 -8 -223 19 -316 60 -633 206 -895 412 -116 91 -190 170 -85 90z"/>
<path d="M5087 4084 c-4 -4 -7 -20 -7 -36 0 -30 -4 -29 95 -32 l50 -1 3 -188
2 -188 38 3 37 3 3 188 2 187 71 0 70 0 -3 33 -3 32 -176 3 c-96 1 -178 -1
-182 -4z"/>
<path d="M5526 4082 c-6 -10 -7 -403 0 -424 4 -13 16 -18 40 -18 l34 0 0 93
c0 51 4 97 9 102 6 6 54 8 113 5 l103 -5 3 -98 3 -98 36 3 37 3 -2 215 c-1
118 -1 218 -2 223 0 4 -16 7 -35 7 l-34 0 -3 -87 -3 -88 -110 0 -110 0 -3 88
-3 87 -34 0 c-19 0 -36 -3 -39 -8z"/>
<path d="M6000 3865 l0 -225 168 2 167 3 0 35 0 35 -127 3 -128 3 0 64 0 64
92 -5 c114 -5 128 -1 128 37 l0 29 -111 0 -110 0 3 53 3 52 123 3 123 3 -3 32
-3 32 -162 3 -163 2 0 -225z"/>
<path d="M6720 3673 c-5 -190 3 -957 10 -984 27 -98 114 -165 235 -180 112
-14 116 -10 110 103 -3 50 -7 94 -10 97 -3 3 -15 0 -25 -7 -33 -21 -94 -15
-118 11 -22 23 -22 24 -22 495 l0 472 -90 0 c-49 0 -90 -3 -90 -7z"/>
<path d="M7150 3210 c0 -455 1 -471 21 -526 40 -107 134 -171 254 -174 92 -3
85 -11 85 95 l0 96 -51 -7 c-58 -8 -91 5 -108 43 -8 16 -11 168 -11 483 l0
460 -95 0 -95 0 0 -470z"/>
<path d="M7650 3212 c0 -522 1 -535 65 -609 50 -58 113 -87 207 -93 55 -3 79
-1 82 7 3 6 2 53 -1 103 -5 78 -8 90 -22 84 -9 -4 -34 -9 -56 -12 -33 -3 -44
1 -65 23 l-25 27 -3 469 -3 469 -89 0 -90 0 0 -468z"/>
<path d="M2480 3025 c0 -272 3 -501 6 -510 5 -13 48 -15 320 -15 l314 0 0 85
0 85 -57 1 c-32 0 -121 0 -198 -1 -77 -1 -153 2 -168 5 l-27 7 0 419 0 419
-95 0 -95 0 0 -495z"/>
<path d="M4351 3229 c-119 -23 -192 -109 -192 -226 0 -117 55 -166 242 -214
68 -18 134 -39 147 -47 30 -19 28 -56 -4 -81 -59 -47 -276 -9 -345 60 -25 25
-34 19 -74 -56 l-30 -56 25 -19 c136 -103 366 -135 494 -69 91 47 132 117 124
213 -9 106 -73 154 -261 197 -100 22 -157 54 -157 85 0 8 11 26 25 39 20 21
34 25 83 25 70 0 149 -22 187 -51 30 -25 25 -29 76 59 23 40 28 56 20 66 -22
26 -130 66 -203 76 -84 11 -98 11 -157 -1z"/>
<path d="M6140 3229 c-185 -26 -310 -173 -310 -364 0 -225 176 -388 403 -373
93 6 171 41 235 105 152 153 146 396 -15 543 -83 76 -191 106 -313 89z m113
-170 c49 -12 97 -50 120 -96 24 -46 23 -155 -3 -207 -53 -110 -216 -131 -302
-40 -45 48 -61 99 -53 170 8 78 47 137 108 165 48 22 72 23 130 8z"/>
<path d="M3485 3223 c-47 -11 -124 -57 -163 -96 -158 -162 -140 -433 36 -562
189 -139 470 -73 570 134 24 50 27 67 27 166 0 97 -3 116 -24 160 -68 136
-186 206 -345 204 -45 -1 -90 -3 -101 -6z m196 -179 c103 -53 130 -211 56
-318 -47 -67 -181 -88 -253 -40 -50 34 -60 48 -78 110 -36 120 25 238 139 267
29 8 106 -3 136 -19z"/>
<path d="M5223 3208 c-23 -13 -56 -42 -74 -65 -17 -24 -35 -43 -41 -43 -5 0
-9 19 -8 43 4 70 8 67 -90 67 l-90 0 0 -560 0 -560 95 0 95 0 0 251 0 252 45
-42 c58 -54 84 -63 172 -64 113 -1 214 56 287 162 136 196 47 486 -172 564
-72 25 -167 23 -219 -5z m143 -163 c86 -25 127 -85 127 -186 0 -57 -4 -73 -29
-109 -42 -62 -74 -83 -137 -88 -71 -6 -115 10 -159 56 -105 110 -61 290 82
330 49 14 60 14 116 -3z"/>
<path d="M8375 3221 c-94 -23 -188 -101 -234 -195 -28 -58 -31 -72 -31 -160 0
-84 4 -104 28 -159 128 -281 546 -289 676 -12 46 95 51 181 20 292 -26 95
-125 194 -226 227 -52 17 -178 20 -233 7z m195 -176 c59 -31 100 -104 100
-178 0 -51 -23 -122 -48 -150 -45 -50 -146 -72 -209 -45 -41 17 -92 68 -109
107 -18 43 -18 132 0 174 17 41 74 95 112 107 35 11 120 2 154 -15z"/>
<path d="M9021 687 c-12 -31 -26 -35 -40 -10 -5 10 -13 14 -17 10 -4 -4 0 -21
9 -36 9 -16 17 -36 17 -44 0 -13 12 -15 73 -10 39 3 91 0 115 -5 40 -9 42 -9
42 14 0 12 5 35 12 49 15 32 4 43 -21 21 -23 -21 -44 -12 -36 15 8 26 -6 24
-29 -3 l-19 -22 -10 22 c-13 28 -33 28 -41 0 l-6 -23 -19 25 -20 25 -10 -28z"/>
<path d="M9765 628 c-3 -7 -1 -40 3 -73 8 -56 9 -58 16 -27 9 38 36 44 36 8 0
-14 5 -28 10 -31 11 -7 14 34 4 59 -3 9 -15 16 -25 16 -13 0 -19 7 -19 24 0
28 -17 44 -25 24z"/>
<path d="M841 558 c1 -48 4 -63 8 -43 8 41 45 42 49 3 3 -29 22 -40 22 -14 0
33 -20 66 -40 66 -15 0 -20 7 -20 24 0 14 -4 28 -10 31 -6 4 -10 -20 -9 -67z"/>
<path d="M9900 564 c0 -41 4 -63 10 -59 6 3 10 33 10 66 0 33 -4 59 -10 59 -6
0 -10 -29 -10 -66z"/>
<path d="M10540 610 c0 -11 -6 -20 -13 -20 -8 0 -22 -9 -32 -20 -27 -30 -7
-70 35 -70 l30 0 0 65 c0 37 -4 65 -10 65 -5 0 -10 -9 -10 -20z m10 -59 c0
-28 -24 -45 -39 -27 -15 18 -3 46 20 46 12 0 19 -7 19 -19z"/>
<path d="M10750 611 c0 -12 -9 -21 -25 -25 -14 -4 -31 -18 -37 -31 -15 -33 4
-55 48 -55 l34 0 0 65 c0 37 -4 65 -10 65 -5 0 -10 -9 -10 -19z m-2 -65 c2
-10 -1 -23 -7 -29 -15 -15 -46 16 -37 38 8 21 40 15 44 -9z"/>
<path d="M409 568 c-2 -66 1 -81 13 -89 15 -10 59 2 65 18 9 23 -13 58 -37 60
-28 2 -34 8 -27 28 9 21 47 20 47 -2 0 -13 3 -14 12 -5 17 17 -8 42 -43 42
-28 0 -29 -2 -30 -52z m59 -51 c4 -20 -25 -34 -40 -19 -15 15 -1 44 19 40 10
-2 19 -11 21 -21z"/>
<path d="M725 610 c-3 -5 3 -10 14 -10 19 0 21 -6 21 -55 0 -30 5 -55 10 -55
6 0 9 20 9 43 -2 49 5 67 27 67 8 0 12 5 9 10 -3 6 -24 10 -45 10 -21 0 -42
-4 -45 -10z"/>
<path d="M9378 614 c-11 -11 -10 -102 1 -109 5 -3 11 5 13 17 5 34 55 38 67 6
9 -21 10 -21 11 -3 1 11 3 35 4 53 2 18 0 35 -5 38 -5 3 -9 -3 -9 -13 0 -10
-4 -24 -9 -32 -13 -21 -58 1 -63 29 -2 12 -6 18 -10 14z"/>
<path d="M10380 565 c0 -30 5 -55 10 -55 6 0 10 20 10 45 0 36 3 45 18 45 14
0 15 2 2 10 -32 21 -40 11 -40 -45z"/>
<path d="M1100 600 c0 -5 7 -7 15 -4 8 4 15 8 15 10 0 2 -7 4 -15 4 -8 0 -15
-4 -15 -10z"/>
<path d="M1150 606 c0 -2 7 -6 15 -10 8 -3 15 -1 15 4 0 6 -7 10 -15 10 -8 0
-15 -2 -15 -4z"/>
<path d="M1740 545 l0 -65 43 1 42 1 -32 9 c-32 9 -33 11 -33 64 0 30 -4 55
-10 55 -6 0 -10 -28 -10 -65z"/>
<path d="M10050 590 c-8 -15 -17 -19 -35 -14 -24 6 -25 4 -25 -35 0 -23 5 -41
10 -41 6 0 10 11 10 25 0 18 5 25 20 25 15 0 20 -7 20 -25 0 -16 6 -25 15 -25
17 0 20 16 6 25 -11 6 -10 45 1 45 11 0 10 28 -1 35 -6 3 -15 -4 -21 -15z"/>
<path d="M1410 546 c0 -27 6 -48 15 -56 21 -18 29 -6 13 19 -10 16 -10 25 -1
40 9 14 9 21 0 30 -20 20 -27 12 -27 -33z"/>
<path d="M1998 579 c-7 -22 7 -92 19 -96 8 -3 10 6 6 30 -3 21 -1 37 6 41 8 5
7 12 -3 22 -18 17 -23 18 -28 3z"/>
<path d="M9527 579 c-23 -14 -22 -65 1 -78 22 -12 62 11 62 35 0 21 -17 17
-23 -6 -5 -21 -31 -27 -42 -10 -10 16 4 48 23 52 10 2 13 6 7 10 -6 3 -18 2
-28 -3z"/>
<path d="M9700 576 c0 -46 13 -76 34 -76 19 1 20 1 3 11 -14 8 -16 18 -11 45
5 27 3 34 -10 34 -9 0 -16 -6 -16 -14z"/>
<path d="M9645 550 c2 -36 -10 -48 -24 -23 -12 21 -24 13 -15 -11 4 -10 18
-16 36 -16 28 0 29 2 26 37 -4 45 -26 57 -23 13z"/>
<path d="M10130 571 c0 -6 10 -11 23 -12 17 -1 15 -3 -10 -11 -48 -16 -46 -48
3 -48 35 0 35 1 32 38 -2 30 -7 38 -25 40 -13 2 -23 -1 -23 -7z m30 -51 c0 -5
-6 -10 -14 -10 -8 0 -18 5 -21 10 -3 6 3 10 14 10 12 0 21 -4 21 -10z"/>
<path d="M10210 520 c0 -38 4 -59 10 -55 6 3 10 12 10 20 0 7 12 15 26 17 63
7 55 71 -10 76 l-36 3 0 -61z m54 44 c21 -8 21 -43 0 -51 -21 -8 -46 19 -38
40 7 18 14 20 38 11z"/>
<path d="M10591 538 l0 -43 12 35 c7 19 19 35 27 35 9 0 18 -13 22 -35 l6 -35
-1 40 c-2 37 -4 40 -34 43 -33 3 -33 3 -32 -40z"/>
<path d="M520 556 c-28 -35 11 -93 48 -70 35 22 22 84 -18 84 -10 0 -23 -7
-30 -14z m50 -37 c0 -12 -7 -19 -20 -19 -14 0 -20 7 -20 23 0 13 3 27 7 30 10
11 33 -13 33 -34z"/>
<path d="M957 555 c-37 -27 -2 -88 39 -70 17 8 16 9 -8 13 -28 3 -36 16 -18
27 6 4 8 11 5 16 -4 5 1 9 9 9 9 0 15 -5 14 -11 -2 -6 3 -14 10 -16 20 -8 14
25 -7 37 -24 12 -22 12 -44 -5z"/>
<path d="M1091 540 c-1 -41 13 -60 44 -60 30 0 48 15 42 36 -4 17 -6 17 -12
-4 -12 -38 -47 -25 -61 23 l-12 40 -1 -35z"/>
<path d="M1227 552 c-31 -34 -14 -72 29 -72 33 0 39 18 7 22 -19 2 -27 9 -28
26 -1 15 4 22 16 22 12 0 16 -5 13 -15 -4 -9 0 -15 10 -15 19 0 21 21 4 38
-17 17 -32 15 -51 -6z"/>
<path d="M1324 555 c-7 -18 3 -35 22 -35 8 0 14 -4 14 -10 0 -5 -4 -10 -10
-10 -5 0 -10 -4 -10 -10 0 -16 30 -11 37 6 4 11 -2 23 -18 35 l-24 19 25 0
c20 0 22 2 10 10 -22 14 -40 12 -46 -5z"/>
<path d="M1494 562 c-21 -13 -25 -49 -9 -66 18 -18 41 -21 49 -7 3 5 -3 11
-14 14 -27 7 -27 47 -1 47 11 0 22 -8 24 -17 4 -14 5 -13 6 3 1 28 -30 43 -55
26z"/>
<path d="M1598 563 c-14 -3 -18 -14 -17 -41 1 -22 3 -28 6 -15 5 26 28 47 43
38 5 -3 10 -20 10 -36 0 -18 4 -28 10 -24 18 11 11 64 -9 75 -11 5 -21 9 -23
9 -2 -1 -11 -3 -20 -6z"/>
<path d="M1902 558 c-18 -18 -15 -27 14 -39 26 -9 26 -10 8 -25 -18 -14 -18
-14 6 -12 35 4 39 35 6 48 -33 12 -34 24 -2 18 17 -4 23 -1 19 9 -6 16 -35 17
-51 1z"/>
<path d="M10449 540 c-7 -35 -4 -48 7 -38 3 4 4 21 2 40 l-3 33 -6 -35z"/>
<path d="M1840 525 c0 -19 5 -35 10 -35 6 0 10 16 10 35 0 19 -4 35 -10 35 -5
0 -10 -16 -10 -35z"/>
<path d="M626 501 c6 -37 4 -42 -17 -50 -21 -8 -22 -10 -6 -16 9 -4 24 -5 32
-1 19 7 32 59 17 64 -7 2 -12 10 -12 17 0 8 -5 17 -10 20 -7 4 -8 -7 -4 -34z"/>
<path d="M9003 513 c-28 -19 -31 -53 -5 -47 9 3 35 -2 57 -10 l40 -15 -54 0
c-40 -1 -52 -4 -44 -12 6 -6 22 -11 34 -11 119 1 169 4 169 12 0 6 -21 10 -47
10 -62 0 -44 21 21 23 40 2 46 5 46 23 0 12 -6 26 -12 32 -14 10 -107 10 -125
-1 -7 -4 -14 -3 -18 3 -9 14 -36 11 -62 -7z"/>
<path d="M8956 442 c-3 -6 -1 -14 5 -17 15 -10 25 3 12 16 -7 7 -13 7 -17 1z"/>
<path d="M9220 435 c0 -8 7 -15 15 -15 8 0 15 7 15 15 0 8 -7 15 -15 15 -8 0
-15 -7 -15 -15z"/>
</g>
</svg>
